# xmcd
#
# Track frame offsets:
# 150
# 12137
# 27789
# 42648
# 61763
# 76837
# 94161
# 107496
# 122716
# 139094
# 155226
# 168072
# 183470
# 198805
# 215153
# 228850
#
# Disc length: 3261 seconds
#
#
# Revision: 0
# Processed by: cddbd v1.5.1PL2 Copyright (c) Steve Scherf et al.
# Submitted via: FreeRIP 2.943 
#
DISCID=cc0cbb10
DTITLE=As Preferidas dos caminhoneiros 2
DYEAR=1900
DGENRE=Sertanejo
TTITLE0=Aqui pra ela
TTITLE1=Agora é so alegria
TTITLE2=Mulher boa era a Maria
TTITLE3=Estrada
TTITLE4=Quebrando tudo
TTITLE5=Amarrado e carimbado
TTITLE6=Ainda ontem chorei de saudade
TTITLE7=Estorou um cano
TTITLE8=Taça de planto
TTITLE9=eu sem você
TTITLE10=Quarto vizinho
TTITLE11=bailão Cuiabano
TTITLE12=Canarinho prisioneiro
TTITLE13=tarde demais
TTITLE14=Credo cruz ave maria
TTITLE15=O casado e o Solteiro
EXTD=
EXTT0=
EXTT1=
EXTT2=
EXTT3=
EXTT4=
EXTT5=
EXTT6=
EXTT7=
EXTT8=
EXTT9=
EXTT10=
EXTT11=
EXTT12=
EXTT13=
EXTT14=
EXTT15=
PLAYORDER=
